<svg width="24" height="25" viewBox="0 0 24 25" fill="none" xmlns="http://www.w3.org/2000/svg">
<path d="M12 0.800781C15.2604 0.800781 15.6672 0.812781 16.9464 0.872781C18.2244 0.932781 19.0944 1.13318 19.86 1.43078C20.652 1.73558 21.3192 2.14838 21.9864 2.81438C22.5966 3.41425 23.0688 4.13989 23.37 4.94078C23.6664 5.70518 23.868 6.57638 23.928 7.85438C23.9844 9.13358 24 9.54038 24 12.8008C24 16.0611 23.988 16.4679 23.928 17.7471C23.868 19.0251 23.6664 19.8951 23.37 20.6607C23.0696 21.4621 22.5973 22.188 21.9864 22.7871C21.3864 23.3972 20.6608 23.8693 19.86 24.1707C19.0956 24.4671 18.2244 24.6687 16.9464 24.7287C15.6672 24.7851 15.2604 24.8007 12 24.8007C8.7396 24.8007 8.3328 24.7887 7.0536 24.7287C5.7756 24.6687 4.9056 24.4671 4.14 24.1707C3.3388 23.8701 2.61304 23.3979 2.0136 22.7871C1.40329 22.1874 0.931117 21.4617 0.63 20.6607C0.3324 19.8963 0.132 19.0251 0.072 17.7471C0.0155999 16.4679 0 16.0611 0 12.8008C0 9.54038 0.0119999 9.13358 0.072 7.85438C0.132 6.57518 0.3324 5.70638 0.63 4.94078C0.930283 4.1394 1.40256 3.41357 2.0136 2.81438C2.6132 2.20386 3.33892 1.73166 4.14 1.43078C4.9056 1.13318 5.7744 0.932781 7.0536 0.872781C8.3328 0.816381 8.7396 0.800781 12 0.800781ZM12 6.80078C10.4087 6.80078 8.88258 7.43292 7.75736 8.55815C6.63214 9.68336 6 11.2095 6 12.8008C6 14.3921 6.63214 15.9182 7.75736 17.0435C8.88258 18.1687 10.4087 18.8007 12 18.8007C13.5913 18.8007 15.1175 18.1687 16.2426 17.0435C17.3678 15.9182 18 14.3921 18 12.8008C18 11.2095 17.3678 9.68336 16.2426 8.55815C15.1175 7.43292 13.5913 6.80078 12 6.80078ZM19.8 6.50078C19.8 6.10296 19.642 5.72143 19.3607 5.44013C19.0794 5.15881 18.6978 5.00078 18.3 5.00078C17.9022 5.00078 17.5206 5.15881 17.2393 5.44013C16.958 5.72143 16.8 6.10296 16.8 6.50078C16.8 6.89861 16.958 7.28013 17.2393 7.56144C17.5206 7.84274 17.9022 8.00078 18.3 8.00078C18.6978 8.00078 19.0794 7.84274 19.3607 7.56144C19.642 7.28013 19.8 6.89861 19.8 6.50078ZM12 9.20078C12.9548 9.20078 13.8704 9.58007 14.5456 10.2552C15.2207 10.9303 15.6 11.846 15.6 12.8008C15.6 13.7556 15.2207 14.6713 14.5456 15.3464C13.8704 16.0215 12.9548 16.4007 12 16.4007C11.0452 16.4007 10.1295 16.0215 9.45442 15.3464C8.77928 14.6713 8.4 13.7556 8.4 12.8008C8.4 11.846 8.77928 10.9303 9.45442 10.2552C10.1295 9.58007 11.0452 9.20078 12 9.20078Z" fill="white"/>
</svg>
