<svg width="24" height="20" viewBox="0 0 24 20" fill="none" xmlns="http://www.w3.org/2000/svg">
<g clip-path="url(#clip0_106_1358)">
<path d="M23.0787 3.06749C22.2462 3.43576 21.3635 3.67762 20.4598 3.78508C21.4124 3.21518 22.1254 2.31829 22.4659 1.26153C21.5719 1.79372 20.5917 2.16669 19.5701 2.36845C18.8839 1.63404 17.9743 1.14698 16.9828 0.982984C15.9913 0.818988 14.9734 0.987245 14.0873 1.46159C13.2013 1.93594 12.4967 2.68981 12.0833 3.606C11.6698 4.52218 11.5704 5.54936 11.8008 6.52782C9.98775 6.43693 8.21411 5.96566 6.595 5.14463C4.97589 4.32359 3.5475 3.17115 2.40257 1.7621C1.9973 2.45836 1.78434 3.24985 1.78547 4.05553C1.78547 5.63684 2.5901 7.03384 3.81339 7.85176C3.08946 7.82895 2.38146 7.63341 1.7484 7.2814V7.33811C1.74862 8.39126 2.11296 9.41192 2.77964 10.2271C3.44633 11.0422 4.37432 11.6016 5.40628 11.8105C4.73426 11.9926 4.0296 12.0194 3.34566 11.889C3.63662 12.7955 4.20372 13.5883 4.96755 14.1564C5.73138 14.7244 6.6537 15.0394 7.60538 15.0571C6.65954 15.8001 5.57656 16.3494 4.41836 16.6735C3.26017 16.9975 2.04946 17.0901 0.855469 16.9459C2.93975 18.2866 5.36605 18.9984 7.84415 18.9962C16.2317 18.9962 20.8185 12.046 20.8185 6.01853C20.8185 5.82223 20.8131 5.62375 20.8043 5.42963C21.6971 4.78421 22.4677 3.98467 23.0797 3.06858L23.0787 3.06749Z" fill="white"/>
</g>
<defs>
<clipPath id="clip0_106_1358">
<rect width="24" height="19.63" fill="white" transform="translate(0 0.171875)"/>
</clipPath>
</defs>
</svg>
