<svg width="34" height="34" viewBox="0 0 34 34" fill="none" xmlns="http://www.w3.org/2000/svg">
<path d="M17.4423 14.9985L16.3958 18.4869L17.4423 19.8823L18.4888 18.4869L17.4423 14.9985Z" fill="black"/>
<path fill-rule="evenodd" clip-rule="evenodd" d="M23.7221 12.3006C23.0832 11.981 22.4747 11.6041 21.904 11.1746C20.8275 10.3562 19.5354 9.03271 19.5354 7.28852C19.5354 5.73411 20.7102 4.18457 22.4572 4.18457C23.2679 4.18457 23.9237 4.50829 24.4191 4.99178C24.9137 4.50829 25.5702 4.18457 26.3816 4.18457C28.1279 4.18457 29.3028 5.7355 29.3028 7.28783C29.3028 8.97829 28.0044 10.3039 26.9384 11.1271C26.3659 11.5663 25.7566 11.9554 25.1175 12.2902C25.1216 13.5069 25.1412 14.6685 25.1593 15.7681C25.2012 18.1785 25.2361 20.2918 25.0902 22.0367C24.8684 24.6795 24.2133 26.8004 22.2542 27.9481C20.3279 29.0762 17.4814 29.5004 15.124 29.2136C13.9407 29.0699 12.8112 28.7392 11.9565 28.1685C11.3349 27.7534 10.8416 27.1946 10.61 26.4941C9.16094 26.4278 7.71955 26.1634 6.57955 25.6904C5.34815 25.1797 4.18652 24.295 4.18652 22.9102V9.15341H4.18862C4.18724 9.12506 4.18654 9.09668 4.18652 9.06829C4.18652 7.14201 7.31001 5.57992 11.1633 5.57992C15.0165 5.57992 18.14 7.14201 18.14 9.06829C18.14 9.0962 18.1393 9.1255 18.1379 9.15341H18.14V13.3039C19.3023 13.4719 20.3651 14.0532 21.1338 14.941C21.9024 15.8289 22.3255 16.964 22.3254 18.1384C22.3253 19.3127 21.9021 20.4478 21.1333 21.3355C20.3645 22.2233 19.3016 22.8043 18.1393 22.9722C18.1072 24.3781 16.9833 25.2676 15.7435 25.7727C14.7179 26.1899 13.4551 26.4202 12.1644 26.4885C12.304 26.6755 12.4923 26.8485 12.7323 27.0083C13.3393 27.4143 14.2323 27.6997 15.2928 27.8288C17.4214 28.0876 19.9442 27.6836 21.5495 26.7439C22.8828 25.9625 23.4856 24.4729 23.6998 21.9202C23.84 20.2443 23.8058 18.249 23.7661 15.8936C23.7428 14.6961 23.7281 13.4984 23.7221 12.3006ZM22.4572 5.57992C21.6326 5.57992 20.9307 6.34457 20.9307 7.28783C20.9307 8.33085 21.7316 9.29155 22.7482 10.0625C23.2693 10.4547 23.8262 10.7972 24.4114 11.0853C24.9999 10.7815 25.5602 10.4262 26.0858 10.0234C27.1135 9.22945 27.9075 8.26945 27.9075 7.28852C27.9075 6.34387 27.2056 5.57992 26.3816 5.57992C25.8068 5.57992 25.3491 5.89945 25.0289 6.47643L24.4191 7.57666L23.8093 6.47643C23.4884 5.89945 23.0307 5.57992 22.4572 5.57992ZM11.1633 12.5567C13.4454 12.5567 15.4721 12.009 16.7447 11.1613V13.3032C15.5818 13.4704 14.5182 14.0511 13.7488 14.9389C12.9794 15.8267 12.5557 16.962 12.5555 18.1368C12.5552 19.3116 12.9784 20.4471 13.7474 21.3352C14.5165 22.2233 15.5798 22.8045 16.7426 22.9722C16.7119 23.515 16.273 24.0502 15.2175 24.4799C14.1535 24.9132 12.6835 25.1309 11.1709 25.1141C10.9569 25.1116 10.7429 25.1044 10.5291 25.0925V12.5427C10.7384 12.5518 10.9498 12.5567 11.1633 12.5567ZM16.7447 9.06829C16.7447 9.21829 16.587 9.72969 15.4728 10.2871C14.4416 10.802 12.92 11.1613 11.1633 11.1613C9.40652 11.1613 7.8842 10.802 6.85373 10.2871C5.73955 9.72969 5.58187 9.21829 5.58187 9.06829C5.58187 8.91829 5.73955 8.4069 6.85373 7.84945C7.8849 7.33457 9.40652 6.97527 11.1633 6.97527C12.92 6.97527 14.4423 7.33457 15.4728 7.84945C16.587 8.4069 16.7447 8.91829 16.7447 9.06829ZM17.4423 21.6264C18.3675 21.6264 19.2548 21.2589 19.909 20.6047C20.5632 19.9505 20.9307 19.0632 20.9307 18.1381C20.9307 17.2129 20.5632 16.3256 19.909 15.6714C19.2548 15.0172 18.3675 14.6497 17.4423 14.6497C16.5172 14.6497 15.6299 15.0172 14.9757 15.6714C14.3215 16.3256 13.954 17.2129 13.954 18.1381C13.954 19.0632 14.3215 19.9505 14.9757 20.6047C15.6299 21.2589 16.5172 21.6264 17.4423 21.6264Z" fill="black"/>
</svg>
