<svg width="34" height="34" viewBox="0 0 34 34" fill="none" xmlns="http://www.w3.org/2000/svg">
<path d="M32.443 16.6852C32.4416 15.299 32.0477 13.9415 31.3069 12.7698C30.5661 11.5982 29.5086 10.6603 28.2569 10.0647V9.88282C28.2557 8.53442 27.8205 7.22222 27.0156 6.14038C26.2107 5.05855 25.0789 4.26456 23.7878 3.87588C22.4966 3.48721 21.1146 3.52451 19.8463 3.98226C18.5779 4.44001 17.4906 5.29389 16.7453 6.41756C15.9999 5.29389 14.9126 4.44001 13.6443 3.98226C12.376 3.52451 10.994 3.48721 9.70281 3.87588C8.41163 4.26456 7.27987 5.05855 6.47499 6.14038C5.67011 7.22222 5.23487 8.53442 5.23366 9.88282V10.0647C3.9809 10.6587 2.92243 11.596 2.18126 12.7677C1.44008 13.9394 1.04663 15.2974 1.04663 16.6838C1.04663 18.0703 1.44008 19.4283 2.18126 20.6C2.92243 21.7717 3.9809 22.709 5.23366 23.303V23.4875C5.23487 24.8359 5.67011 26.1481 6.47499 27.2299C7.27987 28.3117 8.41163 29.1057 9.70281 29.4944C10.994 29.8831 12.376 29.8458 13.6443 29.388C14.9126 28.9303 15.9999 28.0764 16.7453 26.9527C17.4906 28.0764 18.5779 28.9303 19.8463 29.388C21.1146 29.8458 22.4966 29.8831 23.7878 29.4944C25.0789 29.1057 26.2107 28.3117 27.0156 27.2299C27.8205 26.1481 28.2557 24.8359 28.2569 23.4875V23.303C29.5084 22.7078 30.5658 21.7704 31.3066 20.5992C32.0474 19.428 32.4414 18.071 32.443 16.6852ZM11.5127 27.6735C10.4805 27.6734 9.48479 27.2919 8.71674 26.6023C7.94869 25.9127 7.4625 24.9637 7.35154 23.9375C7.68996 23.9858 8.03135 24.0102 8.37319 24.0107H9.41971C9.69726 24.0107 9.96344 23.9005 10.1597 23.7042C10.356 23.508 10.4662 23.2418 10.4662 22.9642C10.4662 22.6867 10.356 22.4205 10.1597 22.2242C9.96344 22.028 9.69726 21.9177 9.41971 21.9177H8.37319C7.13773 21.9192 5.94161 21.4834 4.9966 20.6876C4.05158 19.8918 3.41863 18.7873 3.20981 17.5696C3.00099 16.3519 3.22976 15.0996 3.85563 14.0344C4.4815 12.9692 5.46409 12.1598 6.62944 11.7495C6.83335 11.6773 7.00987 11.5437 7.13473 11.3671C7.25959 11.1905 7.32665 10.9795 7.32668 10.7632V9.88282C7.32668 8.77262 7.76771 7.70788 8.55275 6.92284C9.33778 6.13781 10.4025 5.69678 11.5127 5.69678C12.6229 5.69678 13.6877 6.13781 14.4727 6.92284C15.2577 7.70788 15.6988 8.77262 15.6988 9.88282V18.8122C14.5496 17.7786 13.0583 17.2073 11.5127 17.2084C11.2352 17.2084 10.969 17.3187 10.7727 17.5149C10.5765 17.7112 10.4662 17.9774 10.4662 18.2549C10.4662 18.5325 10.5765 18.7987 10.7727 18.9949C10.969 19.1912 11.2352 19.3014 11.5127 19.3014C12.6229 19.3014 13.6877 19.7425 14.4727 20.5275C15.2577 21.3125 15.6988 22.3773 15.6988 23.4875C15.6988 24.5977 15.2577 25.6624 14.4727 26.4475C13.6877 27.2325 12.6229 27.6735 11.5127 27.6735ZM25.1174 21.9177H24.0709C23.7933 21.9177 23.5271 22.028 23.3309 22.2242C23.1346 22.4205 23.0244 22.6867 23.0244 22.9642C23.0244 23.2418 23.1346 23.508 23.3309 23.7042C23.5271 23.9005 23.7933 24.0107 24.0709 24.0107H25.1174C25.4592 24.0102 25.8006 23.9858 26.139 23.9375C26.0521 24.7415 25.7341 25.5032 25.2235 26.1304C24.7129 26.7576 24.0315 27.2234 23.2617 27.4716C22.492 27.7197 21.6668 27.7396 20.8861 27.5288C20.1053 27.318 19.4023 26.8855 18.862 26.2836C18.3218 25.6817 17.9675 24.9363 17.8419 24.1373C17.7164 23.3384 17.825 22.5201 18.1546 21.7816C18.4841 21.043 19.0206 20.4158 19.6991 19.9756C20.3776 19.5355 21.1691 19.3013 21.9778 19.3014C22.2554 19.3014 22.5216 19.1912 22.7178 18.9949C22.9141 18.7987 23.0244 18.5325 23.0244 18.2549C23.0244 17.9774 22.9141 17.7112 22.7178 17.5149C22.5216 17.3187 22.2554 17.2084 21.9778 17.2084C20.4322 17.2073 18.941 17.7786 17.7918 18.8122V9.88282C17.7918 8.77262 18.2328 7.70788 19.0179 6.92284C19.8029 6.13781 20.8676 5.69678 21.9778 5.69678C23.0881 5.69678 24.1528 6.13781 24.9378 6.92284C25.7229 7.70788 26.1639 8.77262 26.1639 9.88282V10.7632C26.1639 10.9795 26.231 11.1905 26.3558 11.3671C26.4807 11.5437 26.6572 11.6773 26.8611 11.7495C28.0265 12.1598 29.0091 12.9692 29.6349 14.0344C30.2608 15.0996 30.4896 16.3519 30.2808 17.5696C30.0719 18.7873 29.439 19.8918 28.494 20.6876C27.549 21.4834 26.3528 21.9192 25.1174 21.9177ZM27.2104 15.1154C27.2104 15.3929 27.1001 15.6591 26.9039 15.8554C26.7076 16.0516 26.4414 16.1619 26.1639 16.1619H25.6406C24.3917 16.1619 23.1938 15.6657 22.3107 14.7826C21.4275 13.8994 20.9313 12.7016 20.9313 11.4526V10.9293C20.9313 10.6518 21.0416 10.3856 21.2379 10.1893C21.4341 9.99308 21.7003 9.88282 21.9778 9.88282C22.2554 9.88282 22.5216 9.99308 22.7178 10.1893C22.9141 10.3856 23.0244 10.6518 23.0244 10.9293V11.4526C23.0244 12.1465 23.3 12.8119 23.7906 13.3026C24.2813 13.7932 24.9468 14.0689 25.6406 14.0689H26.1639C26.4414 14.0689 26.7076 14.1791 26.9039 14.3754C27.1001 14.5716 27.2104 14.8378 27.2104 15.1154ZM7.84994 16.1619H7.32668C7.04913 16.1619 6.78295 16.0516 6.58669 15.8554C6.39043 15.6591 6.28017 15.3929 6.28017 15.1154C6.28017 14.8378 6.39043 14.5716 6.58669 14.3754C6.78295 14.1791 7.04913 14.0689 7.32668 14.0689H7.84994C8.54382 14.0689 9.20928 13.7932 9.69993 13.3026C10.1906 12.8119 10.4662 12.1465 10.4662 11.4526V10.9293C10.4662 10.6518 10.5765 10.3856 10.7727 10.1893C10.969 9.99308 11.2352 9.88282 11.5127 9.88282C11.7903 9.88282 12.0565 9.99308 12.2527 10.1893C12.449 10.3856 12.5592 10.6518 12.5592 10.9293V11.4526C12.5592 12.7016 12.0631 13.8994 11.1799 14.7826C10.2968 15.6657 9.09892 16.1619 7.84994 16.1619Z" fill="black"/>
</svg>
