<svg width="34" height="35" viewBox="0 0 34 35" fill="none" xmlns="http://www.w3.org/2000/svg">
<path d="M16.7471 24.1089C18.2751 23.5528 18.423 20.1051 17.0775 16.4082C15.7319 12.7114 13.4025 10.1654 11.8745 10.7215C10.3466 11.2777 10.1987 14.7254 11.5442 18.4222C12.8897 22.119 15.2192 24.665 16.7471 24.1089Z" stroke="black" stroke-width="0.697674" stroke-linecap="round" stroke-linejoin="round"/>
<path d="M16.7478 24.1074C17.435 22.6337 15.1017 20.0912 11.5362 18.4286C7.97072 16.766 4.52325 16.6129 3.83606 18.0865C3.14887 19.5602 5.48219 22.1027 9.04766 23.7653C12.6131 25.4279 16.0606 25.5811 16.7478 24.1074Z" stroke="black" stroke-width="0.697674" stroke-linecap="round" stroke-linejoin="round"/>
<path d="M21.9476 18.4243C23.2931 14.7275 23.1452 11.2798 21.6173 10.7236C20.0893 10.1675 17.7599 12.7135 16.4143 16.4103C15.0688 20.1071 15.2167 23.5548 16.7447 24.111C18.2726 24.6671 20.6021 22.1211 21.9476 18.4243Z" stroke="black" stroke-width="0.697674" stroke-linecap="round" stroke-linejoin="round"/>
<path d="M24.4432 23.7623C28.0087 22.0997 30.342 19.5572 29.6548 18.0835C28.9676 16.6099 25.5201 16.763 21.9546 18.4256C18.3892 20.0882 16.0559 22.6307 16.743 24.1044C17.4302 25.5781 20.8777 25.4249 24.4432 23.7623Z" stroke="black" stroke-width="0.697674" stroke-linecap="round" stroke-linejoin="round"/>
</svg>
