<svg width="34" height="34" viewBox="0 0 34 34" fill="none" xmlns="http://www.w3.org/2000/svg">
<g clip-path="url(#clip0_245_66)">
<path d="M10.1431 14.4574C8.9658 13.0096 7.8602 12.6988 6.82634 13.525C5.2756 14.7642 4.83022 19.0837 6.07816 22.8923C7.32613 26.701 9.75271 31.8875 14.6514 31.8875C19.5502 31.8875 20.7089 26.6692 22.7074 23.5143C24.7059 20.3593 25.7632 17.3155 23.8044 13.525" stroke="black" stroke-width="2.7907" stroke-linecap="round" stroke-linejoin="round"/>
<path d="M7.67489 13.0748C6.4868 11.265 5.55657 9.86111 4.88417 8.86316C3.87557 7.36626 6.45471 5.43161 7.67489 6.74773C8.48831 7.62514 9.56894 8.91744 10.9167 10.6246" stroke="black" stroke-width="2.7907" stroke-linecap="round"/>
<path d="M10.4828 18.3755C10.1448 14.145 10.4198 11.3904 11.3079 10.1116C12.6399 8.19356 15.115 7.46631 17.4455 7.46631C18.8331 7.46631 20.1003 8.05731 21.2472 9.23931" stroke="black" stroke-width="2.7907" stroke-linecap="round" stroke-linejoin="round"/>
<path d="M28.6066 9.2911C29.0151 10.7118 28.3479 12.0099 26.2932 12.3038C24.2385 12.5978 22.698 13.631 21.587 14.5001C20.4759 15.3692 18.4889 18.0063 18.0967 19.3303C17.7044 20.6543 15.4624 19.4366 14.8602 18.9081C14.258 18.3794 13.6661 17.2221 14.8602 16.0117C16.0543 14.8013 15.7959 14.5598 15.7959 13.3323C15.7959 12.1049 22.3276 8.0447 26.0061 7.6734C26.8238 7.62568 28.1981 7.87035 28.6066 9.2911Z" stroke="black" stroke-width="2.7907"/>
<path d="M16.0525 3.28027V6.95193" stroke="black" stroke-width="2.7907" stroke-linecap="round"/>
<path d="M14.1686 7.96635C12.0631 5.32045 10.3655 3.84372 9.07568 3.53613" stroke="black" stroke-width="2.7907" stroke-linecap="round"/>
<path d="M11.8638 5.39288L12.5548 2.55518" stroke="black" stroke-width="2.7907" stroke-linecap="round"/>
<path d="M24.8466 7.96777C24.6218 8.73835 24.6218 9.46087 24.8466 10.1352C25.0714 10.8097 25.5532 11.5322 26.2918 12.3028" stroke="black" stroke-width="2.7907" stroke-linecap="round"/>
</g>
<defs>
<clipPath id="clip0_245_66">
<rect width="33.4884" height="33.4884" fill="white" transform="translate(0 0.488281)"/>
</clipPath>
</defs>
</svg>
